# xmcd
#
# Track frame offsets:
#        187
#        12460
#        25080
#        41062
#        57810
#        77920
#        94307
#        104137
#        118107
#        140925
#        159060
#        181580
#
# Disc length: 2740 seconds
#
# Revision: 0
# Processed by: cddbd v1.5.1PL0 Copyright (c) Steve Scherf et al.
# Submitted via: ExactAudioCopy v0.95b2
#
DISCID=9e0ab20c
DTITLE=Haig, Paul - European Sun (Archive Collection 1982-1987)
DYEAR=1988
DGENRE=Pop
TTITLE0=Running Away (Sly Stone)
TTITLE1=Chance
TTITLE2=Justice
TTITLE3=Swinging for You
TTITLE4=Shining Hour
TTITLE5=Fear and Dancing
TTITLE6=Psycho San Jose
TTITLE7=Gost Rider (Vega|Rev)
TTITLE8=Torchomatic
TTITLE9=Endless Song
TTITLE10=Closer Now
TTITLE11=The Executioner (Richard Kirk | Stephen Mallinder)
EXTD=
EXTT0=
EXTT1=
EXTT2=
EXTT3=
EXTT4=
EXTT5=
EXTT6=
EXTT7=
EXTT8=
EXTT9=
EXTT10=
EXTT11=
PLAYORDER=
